<mxfile host="app.diagrams.net" modified="2020-06-23T02:04:51.933Z" agent="5.0 (X11; Linux x86_64) AppleWebKit/537.36 (KHTML, like Gecko) Chrome/81.0.4044.129 Safari/537.36" etag="1_ogvtGdHrAcelP2EK2R" version="13.3.0" type="github" pages="3">
  <diagram id="9_QWOI0BT1UE_N3C8g4X" name="Page-1">
    <mxGraphModel dx="1355" dy="725" grid="1" gridSize="10" guides="1" tooltips="1" connect="1" arrows="1" fold="1" page="1" pageScale="1" pageWidth="850" pageHeight="1100" math="0" shadow="0">
      <root>
        <mxCell id="0" />
        <mxCell id="1" parent="0" />
        <mxCell id="os4-x8eXvJozFovXdyX9-14" value="" style="endArrow=none;html=1;" edge="1" parent="1">
          <mxGeometry width="50" height="50" relative="1" as="geometry">
            <mxPoint x="355" y="390" as="sourcePoint" />
            <mxPoint x="475" y="390" as="targetPoint" />
          </mxGeometry>
        </mxCell>
        <mxCell id="os4-x8eXvJozFovXdyX9-13" value="" style="endArrow=none;html=1;" edge="1" parent="1">
          <mxGeometry width="50" height="50" relative="1" as="geometry">
            <mxPoint x="199" y="280" as="sourcePoint" />
            <mxPoint x="319" y="280" as="targetPoint" />
          </mxGeometry>
        </mxCell>
        <mxCell id="fOeXBZk_Np2dg8zjoitm-1" value="MA" style="rounded=0;whiteSpace=wrap;html=1;fillColor=#f5f5f5;strokeColor=#666666;fontColor=#333333;" parent="1" vertex="1">
          <mxGeometry x="170" y="160" width="50" height="40" as="geometry" />
        </mxCell>
        <mxCell id="fOeXBZk_Np2dg8zjoitm-2" value="MB" style="rounded=0;whiteSpace=wrap;html=1;fillColor=#f5f5f5;strokeColor=#666666;fontColor=#333333;" parent="1" vertex="1">
          <mxGeometry x="260" y="200" width="50" height="40" as="geometry" />
        </mxCell>
        <mxCell id="fOeXBZk_Np2dg8zjoitm-3" value="MC" style="rounded=0;whiteSpace=wrap;html=1;fillColor=#f5f5f5;strokeColor=#666666;fontColor=#333333;" parent="1" vertex="1">
          <mxGeometry x="360" y="200" width="50" height="40" as="geometry" />
        </mxCell>
        <mxCell id="fOeXBZk_Np2dg8zjoitm-4" value="MD" style="rounded=0;whiteSpace=wrap;html=1;fillColor=#f5f5f5;strokeColor=#666666;fontColor=#333333;" parent="1" vertex="1">
          <mxGeometry x="440" y="160" width="50" height="40" as="geometry" />
        </mxCell>
        <mxCell id="fOeXBZk_Np2dg8zjoitm-5" value="EA" style="rounded=0;whiteSpace=wrap;html=1;fillColor=#f5f5f5;strokeColor=#666666;fontColor=#333333;" parent="1" vertex="1">
          <mxGeometry x="550" y="180" width="50" height="40" as="geometry" />
        </mxCell>
        <mxCell id="fOeXBZk_Np2dg8zjoitm-6" value="1B" style="rounded=0;whiteSpace=wrap;html=1;fillColor=#f5f5f5;strokeColor=#666666;fontColor=#333333;" parent="1" vertex="1">
          <mxGeometry x="170" y="440" width="50" height="40" as="geometry" />
        </mxCell>
        <mxCell id="fOeXBZk_Np2dg8zjoitm-7" value="1A" style="rounded=0;whiteSpace=wrap;html=1;fillColor=#f5f5f5;strokeColor=#666666;fontColor=#333333;" parent="1" vertex="1">
          <mxGeometry x="170" y="490" width="50" height="40" as="geometry" />
        </mxCell>
        <mxCell id="fOeXBZk_Np2dg8zjoitm-8" value="1B" style="rounded=0;whiteSpace=wrap;html=1;fillColor=#f5f5f5;strokeColor=#666666;fontColor=#333333;" parent="1" vertex="1">
          <mxGeometry x="240" y="440" width="50" height="40" as="geometry" />
        </mxCell>
        <mxCell id="fOeXBZk_Np2dg8zjoitm-9" value="2A" style="rounded=0;whiteSpace=wrap;html=1;fillColor=#f5f5f5;strokeColor=#666666;fontColor=#333333;" parent="1" vertex="1">
          <mxGeometry x="240" y="490" width="50" height="40" as="geometry" />
        </mxCell>
        <mxCell id="fOeXBZk_Np2dg8zjoitm-10" value="3B" style="rounded=0;whiteSpace=wrap;html=1;fillColor=#f5f5f5;strokeColor=#666666;fontColor=#333333;" parent="1" vertex="1">
          <mxGeometry x="310" y="440" width="50" height="40" as="geometry" />
        </mxCell>
        <mxCell id="fOeXBZk_Np2dg8zjoitm-11" value="3A" style="rounded=0;whiteSpace=wrap;html=1;fillColor=#f5f5f5;strokeColor=#666666;fontColor=#333333;" parent="1" vertex="1">
          <mxGeometry x="310" y="490" width="50" height="40" as="geometry" />
        </mxCell>
        <mxCell id="fOeXBZk_Np2dg8zjoitm-12" value="4B" style="rounded=0;whiteSpace=wrap;html=1;fillColor=#f5f5f5;strokeColor=#666666;fontColor=#333333;" parent="1" vertex="1">
          <mxGeometry x="380" y="440" width="50" height="40" as="geometry" />
        </mxCell>
        <mxCell id="fOeXBZk_Np2dg8zjoitm-13" value="4A" style="rounded=0;whiteSpace=wrap;html=1;fillColor=#f5f5f5;strokeColor=#666666;fontColor=#333333;" parent="1" vertex="1">
          <mxGeometry x="380" y="490" width="50" height="40" as="geometry" />
        </mxCell>
        <mxCell id="os4-x8eXvJozFovXdyX9-6" value="" style="endArrow=none;html=1;" edge="1" parent="1">
          <mxGeometry width="50" height="50" relative="1" as="geometry">
            <mxPoint x="414" y="430" as="sourcePoint" />
            <mxPoint x="414" y="290" as="targetPoint" />
          </mxGeometry>
        </mxCell>
        <mxCell id="os4-x8eXvJozFovXdyX9-7" value="" style="endArrow=none;html=1;" edge="1" parent="1">
          <mxGeometry width="50" height="50" relative="1" as="geometry">
            <mxPoint x="200" y="340" as="sourcePoint" />
            <mxPoint x="414" y="340" as="targetPoint" />
          </mxGeometry>
        </mxCell>
        <mxCell id="os4-x8eXvJozFovXdyX9-8" value="" style="endArrow=none;html=1;" edge="1" parent="1">
          <mxGeometry width="50" height="50" relative="1" as="geometry">
            <mxPoint x="255" y="340" as="sourcePoint" />
            <mxPoint x="255" y="250" as="targetPoint" />
          </mxGeometry>
        </mxCell>
        <mxCell id="os4-x8eXvJozFovXdyX9-9" value="1" style="ellipse;whiteSpace=wrap;html=1;aspect=fixed;" vertex="1" parent="1">
          <mxGeometry x="405" y="380" width="20" height="20" as="geometry" />
        </mxCell>
        <mxCell id="os4-x8eXvJozFovXdyX9-10" value="2" style="ellipse;whiteSpace=wrap;html=1;aspect=fixed;" vertex="1" parent="1">
          <mxGeometry x="405" y="330" width="20" height="20" as="geometry" />
        </mxCell>
        <mxCell id="os4-x8eXvJozFovXdyX9-11" value="3" style="ellipse;whiteSpace=wrap;html=1;aspect=fixed;" vertex="1" parent="1">
          <mxGeometry x="245" y="330" width="20" height="20" as="geometry" />
        </mxCell>
        <mxCell id="os4-x8eXvJozFovXdyX9-12" value="4" style="ellipse;whiteSpace=wrap;html=1;aspect=fixed;" vertex="1" parent="1">
          <mxGeometry x="245" y="270" width="20" height="20" as="geometry" />
        </mxCell>
        <mxCell id="os4-x8eXvJozFovXdyX9-17" value="" style="endArrow=classic;html=1;fillColor=#e51400;strokeColor=#B20000;" edge="1" parent="1">
          <mxGeometry width="50" height="50" relative="1" as="geometry">
            <mxPoint x="413.5" y="380" as="sourcePoint" />
            <mxPoint x="413.5" y="360" as="targetPoint" />
          </mxGeometry>
        </mxCell>
        <mxCell id="os4-x8eXvJozFovXdyX9-18" value="" style="endArrow=classic;html=1;fillColor=#e51400;strokeColor=#B20000;" edge="1" parent="1">
          <mxGeometry width="50" height="50" relative="1" as="geometry">
            <mxPoint x="404.5" y="339.5" as="sourcePoint" />
            <mxPoint x="380" y="339.5" as="targetPoint" />
          </mxGeometry>
        </mxCell>
        <mxCell id="os4-x8eXvJozFovXdyX9-19" value="" style="endArrow=classic;html=1;fillColor=#e51400;strokeColor=#B20000;" edge="1" parent="1">
          <mxGeometry width="50" height="50" relative="1" as="geometry">
            <mxPoint x="254.75" y="329" as="sourcePoint" />
            <mxPoint x="254.5" y="309" as="targetPoint" />
          </mxGeometry>
        </mxCell>
        <mxCell id="os4-x8eXvJozFovXdyX9-20" value="" style="endArrow=classic;html=1;fillColor=#e51400;strokeColor=#B20000;" edge="1" parent="1">
          <mxGeometry width="50" height="50" relative="1" as="geometry">
            <mxPoint x="265" y="279.5" as="sourcePoint" />
            <mxPoint x="284.75" y="279.5" as="targetPoint" />
          </mxGeometry>
        </mxCell>
        <mxCell id="os4-x8eXvJozFovXdyX9-21" value="(0, 0)" style="text;html=1;strokeColor=none;fillColor=none;align=center;verticalAlign=middle;whiteSpace=wrap;rounded=0;" vertex="1" parent="1">
          <mxGeometry x="420" y="400" width="40" height="20" as="geometry" />
        </mxCell>
      </root>
    </mxGraphModel>
  </diagram>
  <diagram id="tw_frf6Sl4hEpWxssMY6" name="Page-2">
    <mxGraphModel dx="1355" dy="725" grid="1" gridSize="10" guides="1" tooltips="1" connect="1" arrows="1" fold="1" page="1" pageScale="1" pageWidth="850" pageHeight="1100" math="0" shadow="0">
      <root>
        <mxCell id="7DCcZqeolJ7xgDvnyArS-0" />
        <mxCell id="7DCcZqeolJ7xgDvnyArS-1" parent="7DCcZqeolJ7xgDvnyArS-0" />
        <mxCell id="Py0wEPDVk0Ul4EcPkZSX-0" value="" style="group" vertex="1" connectable="0" parent="7DCcZqeolJ7xgDvnyArS-1">
          <mxGeometry x="300" y="125" width="200" height="305" as="geometry" />
        </mxCell>
        <mxCell id="7DCcZqeolJ7xgDvnyArS-11" value="" style="group" vertex="1" connectable="0" parent="Py0wEPDVk0Ul4EcPkZSX-0">
          <mxGeometry x="8.333333333333334" width="183.33333333333334" height="203.33333333333334" as="geometry" />
        </mxCell>
        <mxCell id="7DCcZqeolJ7xgDvnyArS-9" value="" style="endArrow=none;html=1;gradientColor=#97d077;fillColor=#d5e8d4;strokeColor=#82b366;" edge="1" parent="7DCcZqeolJ7xgDvnyArS-11">
          <mxGeometry width="50" height="50" relative="1" as="geometry">
            <mxPoint y="100.88461538461539" as="sourcePoint" />
            <mxPoint x="183.33333333333334" y="100.88461538461539" as="targetPoint" />
          </mxGeometry>
        </mxCell>
        <mxCell id="7DCcZqeolJ7xgDvnyArS-10" value="" style="endArrow=none;html=1;gradientColor=#97d077;fillColor=#d5e8d4;strokeColor=#82b366;" edge="1" parent="7DCcZqeolJ7xgDvnyArS-11">
          <mxGeometry width="50" height="50" relative="1" as="geometry">
            <mxPoint x="92.5" as="sourcePoint" />
            <mxPoint x="92.5" y="203.33333333333334" as="targetPoint" />
          </mxGeometry>
        </mxCell>
        <mxCell id="7DCcZqeolJ7xgDvnyArS-8" value="" style="ellipse;whiteSpace=wrap;html=1;aspect=fixed;gradientColor=#97d077;fillColor=#d5e8d4;strokeColor=#82b366;" vertex="1" parent="7DCcZqeolJ7xgDvnyArS-11">
          <mxGeometry x="70.83333333333334" y="82.11538461538461" width="39.1025641025641" height="39.1025641025641" as="geometry" />
        </mxCell>
        <mxCell id="7DCcZqeolJ7xgDvnyArS-2" value="Agent" style="rounded=1;whiteSpace=wrap;html=1;" vertex="1" parent="Py0wEPDVk0Ul4EcPkZSX-0">
          <mxGeometry y="211.15384615384616" width="200" height="93.84615384615384" as="geometry" />
        </mxCell>
        <mxCell id="7DCcZqeolJ7xgDvnyArS-3" value="" style="rounded=0;whiteSpace=wrap;html=1;" vertex="1" parent="Py0wEPDVk0Ul4EcPkZSX-0">
          <mxGeometry x="33.333333333333336" y="70.38461538461539" width="33.333333333333336" height="140.76923076923077" as="geometry" />
        </mxCell>
        <mxCell id="7DCcZqeolJ7xgDvnyArS-4" value="" style="rounded=0;whiteSpace=wrap;html=1;" vertex="1" parent="Py0wEPDVk0Ul4EcPkZSX-0">
          <mxGeometry x="133.33333333333334" y="70.38461538461539" width="33.333333333333336" height="140.76923076923077" as="geometry" />
        </mxCell>
        <mxCell id="7DCcZqeolJ7xgDvnyArS-5" value="" style="rounded=0;whiteSpace=wrap;html=1;fillColor=#f5f5f5;strokeColor=#666666;gradientColor=#b3b3b3;" vertex="1" parent="Py0wEPDVk0Ul4EcPkZSX-0">
          <mxGeometry x="33.333333333333336" y="86.02564102564102" width="33.333333333333336" height="31.28205128205128" as="geometry" />
        </mxCell>
        <mxCell id="7DCcZqeolJ7xgDvnyArS-6" value="" style="rounded=0;whiteSpace=wrap;html=1;fillColor=#f5f5f5;strokeColor=#666666;gradientColor=#b3b3b3;" vertex="1" parent="Py0wEPDVk0Ul4EcPkZSX-0">
          <mxGeometry x="133.33333333333334" y="86.02564102564102" width="33.333333333333336" height="31.28205128205128" as="geometry" />
        </mxCell>
      </root>
    </mxGraphModel>
  </diagram>
  <diagram id="67tsaZY_u-BL-uz2Fe_N" name="Page-3">
    <mxGraphModel dx="1355" dy="725" grid="1" gridSize="10" guides="1" tooltips="1" connect="1" arrows="1" fold="1" page="1" pageScale="1" pageWidth="850" pageHeight="1100" math="0" shadow="0">
      <root>
        <mxCell id="1-WUDu1WQGSi_SuL9eZe-0" />
        <mxCell id="1-WUDu1WQGSi_SuL9eZe-1" parent="1-WUDu1WQGSi_SuL9eZe-0" />
        <mxCell id="1-WUDu1WQGSi_SuL9eZe-2" value="MA" style="rounded=0;whiteSpace=wrap;html=1;fillColor=#f5f5f5;strokeColor=#666666;fontColor=#333333;" vertex="1" parent="1-WUDu1WQGSi_SuL9eZe-1">
          <mxGeometry x="170" y="160" width="60" height="60" as="geometry" />
        </mxCell>
        <mxCell id="0qQZCqxlLaaHJNgfxOFw-1" value="EA" style="rounded=0;whiteSpace=wrap;html=1;fillColor=#f5f5f5;strokeColor=#666666;fontColor=#333333;" vertex="1" parent="1-WUDu1WQGSi_SuL9eZe-1">
          <mxGeometry x="380" y="190" width="60" height="60" as="geometry" />
        </mxCell>
        <mxCell id="0qQZCqxlLaaHJNgfxOFw-2" value="3B" style="rounded=0;whiteSpace=wrap;html=1;fillColor=#f5f5f5;strokeColor=#666666;fontColor=#333333;" vertex="1" parent="1-WUDu1WQGSi_SuL9eZe-1">
          <mxGeometry x="260" y="300" width="60" height="60" as="geometry" />
        </mxCell>
        <mxCell id="0qQZCqxlLaaHJNgfxOFw-5" value="" style="group" vertex="1" connectable="0" parent="1-WUDu1WQGSi_SuL9eZe-1">
          <mxGeometry x="175" y="200" width="50" height="40" as="geometry" />
        </mxCell>
        <mxCell id="0qQZCqxlLaaHJNgfxOFw-3" value="" style="endArrow=none;html=1;gradientColor=#97d077;fillColor=#d5e8d4;strokeColor=#82b366;strokeWidth=3;" edge="1" parent="0qQZCqxlLaaHJNgfxOFw-5">
          <mxGeometry width="50" height="50" relative="1" as="geometry">
            <mxPoint y="20" as="sourcePoint" />
            <mxPoint x="50" y="20" as="targetPoint" />
          </mxGeometry>
        </mxCell>
        <mxCell id="0qQZCqxlLaaHJNgfxOFw-4" value="" style="endArrow=none;html=1;gradientColor=#97d077;fillColor=#d5e8d4;strokeColor=#82b366;strokeWidth=3;" edge="1" parent="0qQZCqxlLaaHJNgfxOFw-5">
          <mxGeometry width="50" height="50" relative="1" as="geometry">
            <mxPoint x="25" y="40" as="sourcePoint" />
            <mxPoint x="25" as="targetPoint" />
          </mxGeometry>
        </mxCell>
        <mxCell id="0qQZCqxlLaaHJNgfxOFw-6" value="" style="endArrow=none;html=1;gradientColor=#97d077;fillColor=#d5e8d4;strokeColor=#82b366;strokeWidth=3;" edge="1" parent="1-WUDu1WQGSi_SuL9eZe-1">
          <mxGeometry width="50" height="50" relative="1" as="geometry">
            <mxPoint x="411" y="270" as="sourcePoint" />
            <mxPoint x="411" y="230" as="targetPoint" />
          </mxGeometry>
        </mxCell>
        <mxCell id="0qQZCqxlLaaHJNgfxOFw-7" value="" style="endArrow=none;html=1;gradientColor=#97d077;fillColor=#d5e8d4;strokeColor=#82b366;strokeWidth=3;" edge="1" parent="1-WUDu1WQGSi_SuL9eZe-1">
          <mxGeometry width="50" height="50" relative="1" as="geometry">
            <mxPoint x="386" y="250" as="sourcePoint" />
            <mxPoint x="436" y="250" as="targetPoint" />
          </mxGeometry>
        </mxCell>
        <mxCell id="0qQZCqxlLaaHJNgfxOFw-8" value="" style="endArrow=none;html=1;gradientColor=#97d077;fillColor=#d5e8d4;strokeColor=#82b366;strokeWidth=3;" edge="1" parent="1-WUDu1WQGSi_SuL9eZe-1">
          <mxGeometry width="50" height="50" relative="1" as="geometry">
            <mxPoint x="290" y="320" as="sourcePoint" />
            <mxPoint x="290" y="280" as="targetPoint" />
          </mxGeometry>
        </mxCell>
        <mxCell id="0qQZCqxlLaaHJNgfxOFw-9" value="" style="endArrow=none;html=1;gradientColor=#97d077;fillColor=#d5e8d4;strokeColor=#82b366;strokeWidth=3;" edge="1" parent="1-WUDu1WQGSi_SuL9eZe-1">
          <mxGeometry width="50" height="50" relative="1" as="geometry">
            <mxPoint x="265" y="300" as="sourcePoint" />
            <mxPoint x="315" y="300" as="targetPoint" />
          </mxGeometry>
        </mxCell>
      </root>
    </mxGraphModel>
  </diagram>
</mxfile>
